<svg id="Layer_1" data-name="Layer 1" xmlns="http://www.w3.org/2000/svg" viewBox="0 0 421.99 126.44"><defs><style>.cls-1{fill:#fff;}</style></defs><title>effortless-white</title><path class="cls-1" d="M89.41,86.07a2.71,2.71,0,0,1,2.42,1.21,5.53,5.53,0,0,1,.81,3.12,8.82,8.82,0,0,1-1.46,5.13,12.57,12.57,0,0,1-5,3.83,61.12,61.12,0,0,1-15.4,4.48,107.59,107.59,0,0,1-18.62,1.66q-12.68,0-21.24-2.87t-12.73-7.9A17.33,17.33,0,0,1,14,83.35,21,21,0,0,1,19.6,68.6q5.59-6.09,16.46-8.81a16.53,16.53,0,0,1-9.11-6,16,16,0,0,1-3.17-9.66,19.66,19.66,0,0,1,4.58-12.84,29.29,29.29,0,0,1,12.33-8.61,46.48,46.48,0,0,1,17-3q12.48,0,18.72,5.39A17.56,17.56,0,0,1,82.67,39a18.8,18.8,0,0,1-2.16,9.61,6.82,6.82,0,0,1-6.19,3.67A7,7,0,0,1,69.88,51a4.49,4.49,0,0,1-1.61-3.77,15.4,15.4,0,0,1,.5-3.72,36.92,36.92,0,0,0,.5-4.53,7.3,7.3,0,0,0-2.72-5.89Q63.84,30.8,57.5,30.8q-8.56,0-13.69,3.62a11.36,11.36,0,0,0-5.13,9.76A9.53,9.53,0,0,0,42.55,52q3.87,3.07,12.63,3.37a4.65,4.65,0,0,1,3.12,1,4.17,4.17,0,0,1,.91,3q0,6.64-6,6.74a41.72,41.72,0,0,0-13.84,2.32q-5.49,2.11-8,5.39a11.41,11.41,0,0,0-2.47,7q0,6.24,5.84,9.41t18.52,3.17a85.74,85.74,0,0,0,17.67-2,87.28,87.28,0,0,0,16-4.78A7.08,7.08,0,0,1,89.41,86.07Z" transform="translate(-14.01 -10.37)"/><path class="cls-1" d="M159.27,81q0,8.06-12.89,8.05-.5,0-5.64-.3a114.37,114.37,0,0,1,1.76,12.13q.65,6.8.65,13.54,0,10.87-3.67,16.61t-9.41,5.74q-7.25,0-10.32-10.27t-3.07-31q0-5.33.3-10.77-.91.1-2.92.1-2.72,0-4.43.1,1,7.45,1.56,14.29t.55,15.2q0,10.87-3.67,16.61t-9.41,5.74q-7.25,0-10.32-10.27t-3.07-31a205.08,205.08,0,0,1,3.88-39.31Q93,36.34,100,23.35t15.7-13a8.13,8.13,0,0,1,7.1,3.77q2.57,3.77,2.57,10.82,0,11-5.89,24.41T98.67,77.61a169.25,169.25,0,0,0-.91,17.21q0,10.37.7,21.29T100.79,127q1.51,0,2.42-2.52a25.4,25.4,0,0,0,.91-8q0-9.87-.75-17.47a112.4,112.4,0,0,0-1.76-12.23,8.2,8.2,0,0,1-.2-2.11,8.82,8.82,0,0,1,3.47-7.15,14.61,14.61,0,0,1,9.21-2.92h3.83a183.74,183.74,0,0,1,6.29-31.46q4.38-14.75,10.67-23.81t13.54-9.06a8.32,8.32,0,0,1,7.4,4.23q2.67,4.23,2.67,11.38a69.13,69.13,0,0,1-3.32,19.83,75.86,75.86,0,0,1-9.81,20.59,43.82,43.82,0,0,1-15.45,14.45,134.56,134.56,0,0,0-.7,14q0,10.37.7,21.29T132.19,127q1.51,0,2.42-2.52a25.4,25.4,0,0,0,.91-8,134.22,134.22,0,0,0-.81-15Q133.9,94.43,133,89.9a9.49,9.49,0,0,1-.2-2.21,9.6,9.6,0,0,1,2.82-7,8.79,8.79,0,0,1,6.44-2.87q3.42,0,6.29-.25t3.67-.35q3.42-.4,4.43-.4Q159.27,76.81,159.27,81Zm-50-54.56a118.87,118.87,0,0,0-4.88,16.31Q102,53,100.28,64.43a64.81,64.81,0,0,0,11.53-19.68,56.84,56.84,0,0,0,3.88-19.28,9.47,9.47,0,0,0-.6-3.83q-.6-1.31-1.51-1.31Q111.76,20.33,109.29,26.47Zm32.11.91a134.71,134.71,0,0,0-5.64,18.42Q133,57.18,131.19,69.36a37.15,37.15,0,0,0,9.71-12.08,67.12,67.12,0,0,0,5.94-15.81,65.36,65.36,0,0,0,2-15q0-6.14-2.52-6.14Q144.27,20.33,141.41,27.38Z" transform="translate(-14.01 -10.37)"/><path class="cls-1" d="M205,75.4a7,7,0,0,1,.7,3.32q0,4.83-2.92,5.74a45.83,45.83,0,0,1-13.29,2.42,25.13,25.13,0,0,1-7.55,13.54,18.57,18.57,0,0,1-12.78,5.08,17.86,17.86,0,0,1-10.32-2.92,18.53,18.53,0,0,1-6.49-7.75,24.81,24.81,0,0,1-2.21-10.47A30.73,30.73,0,0,1,153,70.72a23,23,0,0,1,8.05-9.36A20.28,20.28,0,0,1,172.46,58a15.68,15.68,0,0,1,12.33,5.29,22.64,22.64,0,0,1,5.49,13,60.92,60.92,0,0,0,11.27-2,5.93,5.93,0,0,1,1.41-.2A2.2,2.2,0,0,1,205,75.4ZM175.53,92.21a14.55,14.55,0,0,0,3.17-7.55,13.89,13.89,0,0,1-4.78-5.54,16.38,16.38,0,0,1-1.66-7.25,17.43,17.43,0,0,1,.3-3.22h-.5q-4,0-6.69,3.88T162.7,83.45q0,5.54,2.16,8.46a6.24,6.24,0,0,0,5.08,2.92A7.3,7.3,0,0,0,175.53,92.21Z" transform="translate(-14.01 -10.37)"/><path class="cls-1" d="M241.47,73.44A5.27,5.27,0,0,1,243,77.31a7.62,7.62,0,0,1-.6,2.82,17,17,0,0,1-4.53,6.24,9.65,9.65,0,0,1-6.44,2.52,6.42,6.42,0,0,1-4.78-2,7.45,7.45,0,0,1-2-5.44q0-1.91.2-4.13a21.56,21.56,0,0,0,.2-2.21,1.8,1.8,0,0,0-.35-1.21,1.1,1.1,0,0,0-.86-.4q-1.41,0-3.83,3.37a49.58,49.58,0,0,0-4.83,8.91,72.37,72.37,0,0,0-3.93,11.68q-1.11,4.83-2.52,6.44t-4.63,1.61q-3.83,0-5.39-4t-1.56-12.89a82,82,0,0,1,3.73-24.87,7.58,7.58,0,0,1,3-4.28,10.47,10.47,0,0,1,5.79-1.36,5.68,5.68,0,0,1,2.82.5,2.08,2.08,0,0,1,.81,1.91,38.38,38.38,0,0,1-1.51,7.25q-1,4-1.61,7a72,72,0,0,0-1,7.45,57.21,57.21,0,0,1,7.45-14.09,29.58,29.58,0,0,1,8.05-7.75,14.35,14.35,0,0,1,7.15-2.32,5.85,5.85,0,0,1,4.48,1.66,6.88,6.88,0,0,1,1.56,4.88,43.92,43.92,0,0,1-1.11,7.25h.91A5.15,5.15,0,0,1,241.47,73.44Z" transform="translate(-14.01 -10.37)"/><path class="cls-1" d="M293.81,83.75a6.24,6.24,0,0,1,.75,3.32,9.26,9.26,0,0,1-1.91,6.24,42.79,42.79,0,0,1-9.46,8.76,20.74,20.74,0,0,1-11.78,3.42q-20.54,0-20.54-28.89,0-4.43.3-9h-3.93q-3,0-4.08-1.11A5,5,0,0,1,242.12,63q0-5.64,4.53-5.64h5.74a97.9,97.9,0,0,1,5.23-20.23,45.65,45.65,0,0,1,8.51-14.6q5-5.44,10.72-5.44a7.53,7.53,0,0,1,6.64,3.72,16.88,16.88,0,0,1,2.42,9.36q0,15.6-13.09,27.18H284.1a3.19,3.19,0,0,1,2.32.7,3.71,3.71,0,0,1,.7,2.62q0,6.95-11.38,6.95H263.46q-.2,5-.2,7.85,0,10.47,2.47,14.7a8.37,8.37,0,0,0,7.8,4.23,12,12,0,0,0,7.65-2.62A61,61,0,0,0,289,84a3.54,3.54,0,0,1,2.72-1.41A2.33,2.33,0,0,1,293.81,83.75Zm-23.05-53.2A53.65,53.65,0,0,0,267.24,41a140.24,140.24,0,0,0-2.77,14.85,34.39,34.39,0,0,0,8.91-11.53,28,28,0,0,0,3-11.63q0-5.94-2.21-5.94Q272.62,26.78,270.76,30.55Z" transform="translate(-14.01 -10.37)"/><path class="cls-1" d="M326.63,83.75a6.24,6.24,0,0,1,.75,3.32,9.26,9.26,0,0,1-1.91,6.24,43.36,43.36,0,0,1-9.41,8.76,20.16,20.16,0,0,1-11.53,3.42q-8.86,0-13.14-8.05t-4.28-20.84a143.16,143.16,0,0,1,3.17-28,95,95,0,0,1,9.36-27q6.19-11.27,14.75-11.27a8.54,8.54,0,0,1,7.6,4.48q2.77,4.48,2.77,12.84,0,12-6.64,27.78a153.88,153.88,0,0,1-18,31.31q.7,4.13,2.32,5.89a5.45,5.45,0,0,0,4.23,1.76,11.66,11.66,0,0,0,7.25-2.37,55.26,55.26,0,0,0,8-8.1,3.53,3.53,0,0,1,2.72-1.41A2.33,2.33,0,0,1,326.63,83.75ZM307,28.69a137.06,137.06,0,0,0-5.13,20.74,149.94,149.94,0,0,0-2.42,23.76,129.76,129.76,0,0,0,11.38-23.61A64.72,64.72,0,0,0,315,28q0-7.65-2.82-7.65Q309.87,20.33,307,28.69Z" transform="translate(-14.01 -10.37)"/><path class="cls-1" d="M366.19,83.75a6.24,6.24,0,0,1,.75,3.32A9.26,9.26,0,0,1,365,93.32a36.77,36.77,0,0,1-10.52,8.35A29.17,29.17,0,0,1,340,105.5q-10.57,0-16.41-5.74t-5.84-15.7a29.12,29.12,0,0,1,2.92-12.94,23.91,23.91,0,0,1,8.1-9.51,20.38,20.38,0,0,1,11.73-3.52,12.76,12.76,0,0,1,9.36,3.47Q353.36,65,353.36,71a16.27,16.27,0,0,1-5,11.93q-5,5-16.86,7.9,2.52,4.63,9.56,4.63,4.53,0,10.32-3.17a34.09,34.09,0,0,0,10-8.31,3.54,3.54,0,0,1,2.72-1.41A2.33,2.33,0,0,1,366.19,83.75ZM332.47,72.28a20.18,20.18,0,0,0-2.57,10.47v.2a22.86,22.86,0,0,0,9.36-4.23,8.31,8.31,0,0,0,3.42-6.54,4.38,4.38,0,0,0-1.06-3.07,3.7,3.7,0,0,0-2.87-1.16Q335,67.95,332.47,72.28Z" transform="translate(-14.01 -10.37)"/><path class="cls-1" d="M369.51,105.3a7.11,7.11,0,0,1-2.77-5.44,6.19,6.19,0,0,1,1.91-4.53,7.65,7.65,0,0,1,5.64-1.91,22.3,22.3,0,0,1,3.07.25q1.76.25,2.67.35a13,13,0,0,0-1.16-4.93,24.74,24.74,0,0,0-2.67-4.48q-1.61-2.16-3-3.77A65.81,65.81,0,0,1,367,90.7a73.85,73.85,0,0,1-6.69,7.45,5.39,5.39,0,0,1-3.83,1.81,3.3,3.3,0,0,1-2.62-1.16,4.22,4.22,0,0,1-1-2.87,5.74,5.74,0,0,1,1.41-3.72l1.31-1.61a130.24,130.24,0,0,0,8.36-11.27q1.71-2.92,4-7.8t4.53-10.12q1.91-4.43,8-4.43a10.58,10.58,0,0,1,3.93.5,1.68,1.68,0,0,1,1.11,1.61,7.46,7.46,0,0,1-.4,1.91A14.61,14.61,0,0,1,384,63.62a14.36,14.36,0,0,0-1.81,6.14,6.7,6.7,0,0,0,1.06,3.32,37.62,37.62,0,0,0,3.27,4.53,64.17,64.17,0,0,1,4.88,7.2A13.08,13.08,0,0,1,393,91.3a27.51,27.51,0,0,1-.2,2.82q4.93-1.91,11.58-10.17a3.54,3.54,0,0,1,2.72-1.41,2.33,2.33,0,0,1,2.06,1.21,6.25,6.25,0,0,1,.75,3.32A9.76,9.76,0,0,1,408,93.32q-5,6.24-9.61,8.51a27.29,27.29,0,0,1-11.33,2.47,14.3,14.3,0,0,1-9.56,3.42Q372.28,107.71,369.51,105.3Z" transform="translate(-14.01 -10.37)"/><path class="cls-1" d="M412.5,105.3a7.11,7.11,0,0,1-2.77-5.44,6.19,6.19,0,0,1,1.91-4.53,7.65,7.65,0,0,1,5.64-1.91,22.32,22.32,0,0,1,3.07.25q1.76.25,2.67.35a13,13,0,0,0-1.16-4.93,24.79,24.79,0,0,0-2.67-4.48q-1.61-2.16-3-3.77A65.85,65.85,0,0,1,410,90.7a73.91,73.91,0,0,1-6.69,7.45,5.39,5.39,0,0,1-3.83,1.81,3.3,3.3,0,0,1-2.62-1.16,4.22,4.22,0,0,1-1-2.87,5.74,5.74,0,0,1,1.41-3.72l1.31-1.61a130.34,130.34,0,0,0,8.36-11.27,65,65,0,0,0,3.67-6.95q1.86-4,4.88-11,1.91-4.43,8-4.43a10.59,10.59,0,0,1,3.93.5,1.68,1.68,0,0,1,1.11,1.61,7.48,7.48,0,0,1-.4,1.91,14.64,14.64,0,0,1-1.11,2.62,14.35,14.35,0,0,0-1.81,6.14,6.7,6.7,0,0,0,1.06,3.32,37.73,37.73,0,0,0,3.27,4.53,64.12,64.12,0,0,1,4.88,7.2A13.08,13.08,0,0,1,436,91.3a17.12,17.12,0,0,1-2,8,16,16,0,0,1-5.49,6.09,14.34,14.34,0,0,1-8.05,2.32Q415.26,107.71,412.5,105.3Z" transform="translate(-14.01 -10.37)"/></svg>