<svg id="Layer_1" data-name="Layer 1" xmlns="http://www.w3.org/2000/svg" viewBox="0 0 788.52 126.44"><defs><style>.cls-1{fill:#fff;}</style></defs><title>effortless-reviews-white</title><path class="cls-1" d="M87.41,83.7a2.71,2.71,0,0,1,2.42,1.21A5.53,5.53,0,0,1,90.63,88a8.82,8.82,0,0,1-1.46,5.13,12.57,12.57,0,0,1-5,3.83,61.12,61.12,0,0,1-15.4,4.48,107.59,107.59,0,0,1-18.62,1.66q-12.68,0-21.24-2.87t-12.73-7.9A17.33,17.33,0,0,1,12,81,21,21,0,0,1,17.6,66.24q5.59-6.09,16.46-8.81a16.53,16.53,0,0,1-9.11-6,16,16,0,0,1-3.17-9.66,19.66,19.66,0,0,1,4.58-12.84,29.29,29.29,0,0,1,12.33-8.61,46.48,46.48,0,0,1,17-3q12.48,0,18.72,5.39a17.56,17.56,0,0,1,6.24,13.94A18.8,18.8,0,0,1,78.5,46.2a6.82,6.82,0,0,1-6.19,3.67,7,7,0,0,1-4.43-1.26,4.49,4.49,0,0,1-1.61-3.77,15.4,15.4,0,0,1,.5-3.72,36.92,36.92,0,0,0,.5-4.53,7.3,7.3,0,0,0-2.72-5.89q-2.72-2.26-9.06-2.26-8.56,0-13.69,3.62a11.36,11.36,0,0,0-5.13,9.76,9.53,9.53,0,0,0,3.88,7.8Q44.42,52.7,53.18,53a4.65,4.65,0,0,1,3.12,1,4.17,4.17,0,0,1,.91,3q0,6.64-6,6.74a41.72,41.72,0,0,0-13.84,2.32q-5.49,2.11-8,5.39a11.41,11.41,0,0,0-2.47,7q0,6.24,5.84,9.41T51.27,91a85.74,85.74,0,0,0,17.67-2,87.28,87.28,0,0,0,16-4.78A7.08,7.08,0,0,1,87.41,83.7Z" transform="translate(-12.01 -8)"/><path class="cls-1" d="M157.27,78.67q0,8.06-12.89,8.05-.5,0-5.64-.3a114.37,114.37,0,0,1,1.76,12.13q.65,6.8.65,13.54,0,10.87-3.67,16.61t-9.41,5.74q-7.25,0-10.32-10.27t-3.07-31q0-5.33.3-10.77-.91.1-2.92.1-2.72,0-4.43.1,1,7.45,1.56,14.29t.55,15.2q0,10.87-3.67,16.61t-9.41,5.74q-7.25,0-10.32-10.27t-3.07-31a205.08,205.08,0,0,1,3.88-39.31Q91,34,98,21t15.7-13a8.13,8.13,0,0,1,7.1,3.77q2.57,3.77,2.57,10.82,0,11-5.89,24.41T96.67,75.24a169.25,169.25,0,0,0-.91,17.21q0,10.37.7,21.29t2.32,10.92q1.51,0,2.42-2.52a25.4,25.4,0,0,0,.91-8q0-9.87-.75-17.47a112.4,112.4,0,0,0-1.76-12.23,8.2,8.2,0,0,1-.2-2.11,8.82,8.82,0,0,1,3.47-7.15,14.61,14.61,0,0,1,9.21-2.92h3.83a183.74,183.74,0,0,1,6.29-31.46q4.38-14.75,10.67-23.81T146.4,8a8.32,8.32,0,0,1,7.4,4.23q2.67,4.23,2.67,11.38a69.13,69.13,0,0,1-3.32,19.83A75.86,75.86,0,0,1,143.33,64a43.81,43.81,0,0,1-15.45,14.45,134.56,134.56,0,0,0-.7,14q0,10.37.7,21.29t2.32,10.92q1.51,0,2.42-2.52a25.4,25.4,0,0,0,.91-8,134.1,134.1,0,0,0-.81-15q-.81-7.15-1.71-11.68a9.49,9.49,0,0,1-.2-2.21,9.6,9.6,0,0,1,2.82-7,8.79,8.79,0,0,1,6.44-2.87q3.42,0,6.29-.25t3.67-.35q3.42-.4,4.43-.4Q157.27,74.44,157.27,78.67Zm-50-54.56a118.87,118.87,0,0,0-4.88,16.31Q100,50.58,98.28,62.06a64.81,64.81,0,0,0,11.53-19.68,56.84,56.84,0,0,0,3.88-19.28,9.47,9.47,0,0,0-.6-3.83q-.6-1.31-1.51-1.31Q109.76,18,107.29,24.11Zm32.11.91a134.71,134.71,0,0,0-5.64,18.42Q131,54.81,129.19,67a37.15,37.15,0,0,0,9.71-12.08,67.12,67.12,0,0,0,5.94-15.81,65.36,65.36,0,0,0,2-15q0-6.14-2.52-6.14Q142.27,18,139.41,25Z" transform="translate(-12.01 -8)"/><path class="cls-1" d="M203,73a7,7,0,0,1,.7,3.32q0,4.83-2.92,5.74a45.83,45.83,0,0,1-13.29,2.42A25.13,25.13,0,0,1,179.92,98a18.57,18.57,0,0,1-12.78,5.08,17.86,17.86,0,0,1-10.32-2.92,18.53,18.53,0,0,1-6.49-7.75A24.81,24.81,0,0,1,148.11,82,30.73,30.73,0,0,1,151,68.35,23,23,0,0,1,159.09,59a20.28,20.28,0,0,1,11.38-3.37,15.68,15.68,0,0,1,12.33,5.29,22.64,22.64,0,0,1,5.49,13,60.92,60.92,0,0,0,11.27-2,5.94,5.94,0,0,1,1.41-.2A2.2,2.2,0,0,1,203,73ZM173.53,89.84a14.55,14.55,0,0,0,3.17-7.55,13.89,13.89,0,0,1-4.78-5.54,16.38,16.38,0,0,1-1.66-7.25,17.43,17.43,0,0,1,.3-3.22h-.5q-4,0-6.69,3.88T160.7,81.08q0,5.54,2.16,8.46a6.24,6.24,0,0,0,5.08,2.92A7.3,7.3,0,0,0,173.53,89.84Z" transform="translate(-12.01 -8)"/><path class="cls-1" d="M239.47,71.07A5.27,5.27,0,0,1,241,74.94a7.62,7.62,0,0,1-.6,2.82A17,17,0,0,1,235.89,84a9.65,9.65,0,0,1-6.44,2.52,6.42,6.42,0,0,1-4.78-2,7.45,7.45,0,0,1-2-5.44q0-1.91.2-4.13a21.56,21.56,0,0,0,.2-2.21,1.8,1.8,0,0,0-.35-1.21,1.1,1.1,0,0,0-.86-.4q-1.41,0-3.83,3.37a49.58,49.58,0,0,0-4.83,8.91,72.37,72.37,0,0,0-3.93,11.68q-1.11,4.83-2.52,6.44t-4.63,1.61q-3.83,0-5.39-4t-1.56-12.89a82,82,0,0,1,3.73-24.87,7.58,7.58,0,0,1,3-4.28,10.47,10.47,0,0,1,5.79-1.36,5.68,5.68,0,0,1,2.82.5,2.08,2.08,0,0,1,.81,1.91,38.38,38.38,0,0,1-1.51,7.25q-1,4-1.61,7a72,72,0,0,0-1,7.45,57.21,57.21,0,0,1,7.45-14.09A29.58,29.58,0,0,1,222.71,58a14.35,14.35,0,0,1,7.15-2.32,5.85,5.85,0,0,1,4.48,1.66,6.88,6.88,0,0,1,1.56,4.88,43.92,43.92,0,0,1-1.11,7.25h.91A5.15,5.15,0,0,1,239.47,71.07Z" transform="translate(-12.01 -8)"/><path class="cls-1" d="M291.81,81.39a6.24,6.24,0,0,1,.75,3.32,9.26,9.26,0,0,1-1.91,6.24,42.79,42.79,0,0,1-9.46,8.76,20.74,20.74,0,0,1-11.78,3.42q-20.54,0-20.54-28.89,0-4.43.3-9h-3.93q-3,0-4.08-1.11a5,5,0,0,1-1.06-3.52q0-5.64,4.53-5.64h5.74a97.9,97.9,0,0,1,5.23-20.23,45.65,45.65,0,0,1,8.51-14.6q5-5.44,10.72-5.44a7.53,7.53,0,0,1,6.64,3.72,16.88,16.88,0,0,1,2.42,9.36q0,15.6-13.09,27.18H282.1a3.19,3.19,0,0,1,2.32.7,3.71,3.71,0,0,1,.7,2.62q0,6.95-11.38,6.95H261.46q-.2,5-.2,7.85,0,10.47,2.47,14.7a8.37,8.37,0,0,0,7.8,4.23,12,12,0,0,0,7.65-2.62A61,61,0,0,0,287,81.59a3.54,3.54,0,0,1,2.72-1.41A2.33,2.33,0,0,1,291.81,81.39Zm-23.05-53.2a53.65,53.65,0,0,0-3.52,10.47,140.24,140.24,0,0,0-2.77,14.85A34.39,34.39,0,0,0,271.38,42a28,28,0,0,0,3-11.63q0-5.94-2.21-5.94Q270.62,24.41,268.76,28.18Z" transform="translate(-12.01 -8)"/><path class="cls-1" d="M324.63,81.39a6.24,6.24,0,0,1,.75,3.32,9.26,9.26,0,0,1-1.91,6.24,43.36,43.36,0,0,1-9.41,8.76,20.16,20.16,0,0,1-11.53,3.42q-8.86,0-13.14-8.05t-4.28-20.84a143.16,143.16,0,0,1,3.17-28,95,95,0,0,1,9.36-27Q303.84,8,312.4,8a8.54,8.54,0,0,1,7.6,4.48q2.77,4.48,2.77,12.84,0,12-6.64,27.78a153.88,153.88,0,0,1-18,31.31q.7,4.13,2.32,5.89a5.45,5.45,0,0,0,4.23,1.76,11.66,11.66,0,0,0,7.25-2.37,55.26,55.26,0,0,0,8-8.1,3.53,3.53,0,0,1,2.72-1.41A2.33,2.33,0,0,1,324.63,81.39ZM305,26.32a137.06,137.06,0,0,0-5.13,20.74,149.94,149.94,0,0,0-2.42,23.76,129.76,129.76,0,0,0,11.38-23.61A64.72,64.72,0,0,0,313,25.62Q313,18,310.19,18,307.87,18,305,26.32Z" transform="translate(-12.01 -8)"/><path class="cls-1" d="M364.19,81.39a6.24,6.24,0,0,1,.75,3.32A9.26,9.26,0,0,1,363,90.95a36.77,36.77,0,0,1-10.52,8.35A29.17,29.17,0,0,1,338,103.13q-10.57,0-16.41-5.74t-5.84-15.7a29.12,29.12,0,0,1,2.92-12.94,23.91,23.91,0,0,1,8.1-9.51,20.38,20.38,0,0,1,11.73-3.52,12.76,12.76,0,0,1,9.36,3.47q3.52,3.47,3.52,9.41a16.27,16.27,0,0,1-5,11.93q-5,5-16.86,7.9,2.52,4.63,9.56,4.63,4.53,0,10.32-3.17a34.09,34.09,0,0,0,10-8.31,3.54,3.54,0,0,1,2.72-1.41A2.33,2.33,0,0,1,364.19,81.39ZM330.47,69.91a20.18,20.18,0,0,0-2.57,10.47v.2a22.86,22.86,0,0,0,9.36-4.23,8.31,8.31,0,0,0,3.42-6.54,4.38,4.38,0,0,0-1.06-3.07,3.7,3.7,0,0,0-2.87-1.16Q333,65.58,330.47,69.91Z" transform="translate(-12.01 -8)"/><path class="cls-1" d="M367.51,102.93a7.11,7.11,0,0,1-2.77-5.44A6.19,6.19,0,0,1,366.66,93,7.65,7.65,0,0,1,372.3,91a22.3,22.3,0,0,1,3.07.25q1.76.25,2.67.35a13,13,0,0,0-1.16-4.93,24.74,24.74,0,0,0-2.67-4.48q-1.61-2.16-3-3.77A65.81,65.81,0,0,1,365,88.33a73.85,73.85,0,0,1-6.69,7.45,5.39,5.39,0,0,1-3.83,1.81,3.3,3.3,0,0,1-2.62-1.16,4.22,4.22,0,0,1-1-2.87,5.74,5.74,0,0,1,1.41-3.72l1.31-1.61A130.24,130.24,0,0,0,361.93,77q1.71-2.92,4-7.8T370.48,59q1.91-4.43,8-4.43a10.58,10.58,0,0,1,3.93.5,1.68,1.68,0,0,1,1.11,1.61,7.46,7.46,0,0,1-.4,1.91A14.61,14.61,0,0,1,382,61.25a14.36,14.36,0,0,0-1.81,6.14,6.7,6.7,0,0,0,1.06,3.32,37.62,37.62,0,0,0,3.27,4.53,64.17,64.17,0,0,1,4.88,7.2A13.08,13.08,0,0,1,391,88.94a27.51,27.51,0,0,1-.2,2.82q4.93-1.91,11.58-10.17a3.54,3.54,0,0,1,2.72-1.41,2.33,2.33,0,0,1,2.06,1.21,6.25,6.25,0,0,1,.75,3.32A9.76,9.76,0,0,1,406,90.95q-5,6.24-9.61,8.51a27.29,27.29,0,0,1-11.33,2.47,14.3,14.3,0,0,1-9.56,3.42Q370.28,105.34,367.51,102.93Z" transform="translate(-12.01 -8)"/><path class="cls-1" d="M410.5,102.93a7.11,7.11,0,0,1-2.77-5.44A6.19,6.19,0,0,1,409.64,93,7.65,7.65,0,0,1,415.28,91a22.32,22.32,0,0,1,3.07.25q1.76.25,2.67.35a13,13,0,0,0-1.16-4.93,24.79,24.79,0,0,0-2.67-4.48q-1.61-2.16-3-3.77A65.85,65.85,0,0,1,408,88.33a73.91,73.91,0,0,1-6.69,7.45,5.39,5.39,0,0,1-3.83,1.81,3.3,3.3,0,0,1-2.62-1.16,4.22,4.22,0,0,1-1-2.87,5.74,5.74,0,0,1,1.41-3.72l1.31-1.61A130.34,130.34,0,0,0,404.91,77,65,65,0,0,0,408.58,70q1.86-4,4.88-11,1.91-4.43,8-4.43a10.59,10.59,0,0,1,3.93.5,1.68,1.68,0,0,1,1.11,1.61,7.48,7.48,0,0,1-.4,1.91,14.64,14.64,0,0,1-1.11,2.62,14.35,14.35,0,0,0-1.81,6.14,6.7,6.7,0,0,0,1.06,3.32,37.73,37.73,0,0,0,3.27,4.53,64.12,64.12,0,0,1,4.88,7.2A13.08,13.08,0,0,1,434,88.94a17.12,17.12,0,0,1-2,8,16,16,0,0,1-5.49,6.09,14.34,14.34,0,0,1-8.05,2.32Q413.26,105.34,410.5,102.93Z" transform="translate(-12.01 -8)"/><path class="cls-1" d="M562.1,81.39a6.24,6.24,0,0,1,.75,3.32,9.51,9.51,0,0,1-1.91,6.24,43.61,43.61,0,0,1-9.76,9,21.13,21.13,0,0,1-11.68,3.17,17.69,17.69,0,0,1-11.12-3.52q-4.58-3.52-8.71-12.08-3.32-6.84-5.24-10.12a16,16,0,0,0-3.77-4.68A9.11,9.11,0,0,0,506.08,71q-.4,2.11-2.32,13.29-.81,5-1,6.14-1,6.14-4,9.41t-9.16,3.27a19.06,19.06,0,0,1-11.93-4,25.33,25.33,0,0,1-8-11.07,43.48,43.48,0,0,1-2.82-16.16q0-16.91,5.89-29.19A43.26,43.26,0,0,1,489.22,24a46,46,0,0,1,24.51-6.49q9.66,0,16.21,2.92a21.09,21.09,0,0,1,9.71,8.05A21.59,21.59,0,0,1,542.82,40a24.58,24.58,0,0,1-2.67,11,27.43,27.43,0,0,1-8,9.51,35.86,35.86,0,0,1-13,6.14,15,15,0,0,1,7.45,4.23,35.24,35.24,0,0,1,5.24,8.56,32.31,32.31,0,0,0,5.59,8.86,8.7,8.7,0,0,0,6.39,2.82A10.15,10.15,0,0,0,550,89a48.77,48.77,0,0,0,7.35-7.4A3.53,3.53,0,0,1,560,80.18,2.33,2.33,0,0,1,562.1,81.39ZM492.19,70.92q-3.42,0-4.68-1.61a5.73,5.73,0,0,1-1.26-3.62,4.89,4.89,0,0,1,1.56-3.83,5.18,5.18,0,0,1,3.57-1.41h2.52q1.61-9.86,3-17,1.31-6.54,8.46-6.54,5.74,0,5.74,5.13a11.16,11.16,0,0,1-.1,1.71l-3,16.71a24.26,24.26,0,0,0,9.92-2.62,18.41,18.41,0,0,0,7.15-6.44A16.87,16.87,0,0,0,527.72,42a12.3,12.3,0,0,0-4.33-10q-4.33-3.62-12.68-3.62a30.62,30.62,0,0,0-17.26,4.88q-7.4,4.88-11.53,14.5t-4.13,23.41a41,41,0,0,0,1.31,11.07,19.14,19.14,0,0,0,3.22,6.95q1.91,2.32,3.62,2.32a2.53,2.53,0,0,0,2.17-1.31A11.72,11.72,0,0,0,489.47,86Z" transform="translate(-12.01 -8)"/><path class="cls-1" d="M599.65,81.39a6.25,6.25,0,0,1,.75,3.32,9.26,9.26,0,0,1-1.91,6.24A36.76,36.76,0,0,1,588,99.3a29.17,29.17,0,0,1-14.55,3.83q-10.57,0-16.41-5.74t-5.84-15.7a29.12,29.12,0,0,1,2.92-12.94,23.91,23.91,0,0,1,8.1-9.51,20.38,20.38,0,0,1,11.73-3.52,12.76,12.76,0,0,1,9.36,3.47q3.52,3.47,3.52,9.41a16.28,16.28,0,0,1-5,11.93q-5,5-16.86,7.9,2.52,4.63,9.56,4.63,4.53,0,10.32-3.17a34.08,34.08,0,0,0,10-8.31,3.53,3.53,0,0,1,2.72-1.41A2.33,2.33,0,0,1,599.65,81.39ZM565.93,69.91a20.17,20.17,0,0,0-2.57,10.47v.2a22.87,22.87,0,0,0,9.36-4.23,8.31,8.31,0,0,0,3.42-6.54,4.38,4.38,0,0,0-1.06-3.07,3.7,3.7,0,0,0-2.87-1.16Q568.49,65.58,565.93,69.91Z" transform="translate(-12.01 -8)"/><path class="cls-1" d="M643.59,71.92a2.8,2.8,0,0,1,2.32,1,4.24,4.24,0,0,1,.81,2.72,8.53,8.53,0,0,1-1.21,4.88,6.84,6.84,0,0,1-3.62,2.57A31.65,31.65,0,0,1,632,84.61a28.26,28.26,0,0,1-8.36-1.21q-2.92,4.73-6.44,9.76-4,5.74-6.95,7.85a11,11,0,0,1-6.64,2.11,7.61,7.61,0,0,1-6.49-3.22q-2.37-3.22-3-10.17Q593,75.65,593,65.08V61.55q.1-3.32,1.81-4.63a8.39,8.39,0,0,1,5.13-1.31,5.58,5.58,0,0,1,3.88,1.16A5.08,5.08,0,0,1,605,60.65q0,11.58,1.41,30.1,6-9,9.06-14.29A14.93,14.93,0,0,1,614,69.51a15.49,15.49,0,0,1,1.51-6.64,13.94,13.94,0,0,1,4.13-5.23,9.49,9.49,0,0,1,5.94-2,6,6,0,0,1,4.73,2.06,8.82,8.82,0,0,1,1.81,6A27.62,27.62,0,0,1,629.7,74a71.45,71.45,0,0,0,10.17-1.51l2.72-.5A3.58,3.58,0,0,1,643.59,71.92Z" transform="translate(-12.01 -8)"/><path class="cls-1" d="M640.82,98.5q-3-4.63-3-12.28A75.2,75.2,0,0,1,639,74.59a108.56,108.56,0,0,1,3-13.24,8.54,8.54,0,0,1,2.42-4.43,7.74,7.74,0,0,1,4.83-1.21q5.13,0,5.13,3.42,0,2.52-1.91,11.68Q650,81.89,650,85.81a10.6,10.6,0,0,0,.81,4.63,2.8,2.8,0,0,0,2.72,1.61q1.81,0,4.53-2.52a90.1,90.1,0,0,0,7.25-8,3.53,3.53,0,0,1,2.72-1.41,2.33,2.33,0,0,1,2.06,1.21,6.24,6.24,0,0,1,.75,3.32A9.26,9.26,0,0,1,669,90.95q-10,12.18-18.62,12.18Q643.79,103.13,640.82,98.5Zm4-51.39a7.12,7.12,0,0,1-2.11-5.49,7.43,7.43,0,0,1,2.77-5.89,10.24,10.24,0,0,1,6.9-2.37,9.52,9.52,0,0,1,6,1.81,6.14,6.14,0,0,1,2.32,5.13,8.19,8.19,0,0,1-2.62,6.39,10,10,0,0,1-6.95,2.37Q646.91,49.07,644.8,47.11Z" transform="translate(-12.01 -8)"/><path class="cls-1" d="M709.68,81.39a6.25,6.25,0,0,1,.75,3.32,9.26,9.26,0,0,1-1.91,6.24A36.76,36.76,0,0,1,698,99.3a29.17,29.17,0,0,1-14.55,3.83q-10.57,0-16.41-5.74t-5.84-15.7a29.12,29.12,0,0,1,2.92-12.94,23.91,23.91,0,0,1,8.1-9.51A20.38,20.38,0,0,1,684,55.72a12.76,12.76,0,0,1,9.36,3.47q3.52,3.47,3.52,9.41a16.28,16.28,0,0,1-5,11.93q-5,5-16.86,7.9,2.52,4.63,9.56,4.63,4.53,0,10.32-3.17a34.08,34.08,0,0,0,10-8.31,3.53,3.53,0,0,1,2.72-1.41A2.33,2.33,0,0,1,709.68,81.39ZM676,69.91a20.17,20.17,0,0,0-2.57,10.47v.2a22.87,22.87,0,0,0,9.36-4.23,8.31,8.31,0,0,0,3.42-6.54,4.38,4.38,0,0,0-1.06-3.07,3.7,3.7,0,0,0-2.87-1.16Q678.52,65.58,676,69.91Z" transform="translate(-12.01 -8)"/><path class="cls-1" d="M768.62,59.14a10.11,10.11,0,0,1-.81,3.32q-8.15,19-15.4,30.7-3.62,5.74-6.54,7.85a11,11,0,0,1-6.64,2.11,6.59,6.59,0,0,1-6-3.12q-2-3.12-2.47-10.27-.2-2.62-.4-7.85a92.71,92.71,0,0,1-5.69,13.24q-2.57,4.58-5,6.29a10.07,10.07,0,0,1-5.89,1.71,7.61,7.61,0,0,1-6.49-3.22q-2.37-3.22-3-10.17-1.21-14.09-1.21-24.66V61.55q.1-3.42,1.71-4.68T710,55.61a5.58,5.58,0,0,1,3.88,1.16,5.08,5.08,0,0,1,1.26,3.88q0,11.58,1.41,30.1,3.32-7,6.14-13.49t6.54-16.51a8.17,8.17,0,0,1,2.67-4.08,6.39,6.39,0,0,1,3.67-1.06,6.56,6.56,0,0,1,4.23,1.16,4.75,4.75,0,0,1,1.41,3.88v15.6q0,10.07.1,14.5,4.63-8.05,7.6-14a166,166,0,0,0,6.69-16,7.44,7.44,0,0,1,2.92-4.08,8.87,8.87,0,0,1,4.53-1.06Q768.61,55.61,768.62,59.14Z" transform="translate(-12.01 -8)"/><path class="cls-1" d="M777,102.93a7.11,7.11,0,0,1-2.77-5.44A6.19,6.19,0,0,1,776.17,93,7.65,7.65,0,0,1,781.8,91a22.3,22.3,0,0,1,3.07.25q1.76.25,2.67.35a13,13,0,0,0-1.16-4.93,24.68,24.68,0,0,0-2.67-4.48q-1.61-2.16-3-3.77a65.77,65.77,0,0,1-6.19,9.87,73.79,73.79,0,0,1-6.69,7.45A5.39,5.39,0,0,1,764,97.59a3.3,3.3,0,0,1-2.62-1.16,4.22,4.22,0,0,1-1-2.87,5.75,5.75,0,0,1,1.41-3.72l1.31-1.61A129.93,129.93,0,0,0,771.43,77,65.16,65.16,0,0,0,775.11,70Q777,66,780,59q1.91-4.43,8-4.43a10.58,10.58,0,0,1,3.93.5A1.68,1.68,0,0,1,793,56.72a7.44,7.44,0,0,1-.4,1.91,14.64,14.64,0,0,1-1.11,2.62,14.36,14.36,0,0,0-1.81,6.14,6.7,6.7,0,0,0,1.06,3.32A37.62,37.62,0,0,0,794,75.24a64.12,64.12,0,0,1,4.88,7.2,13.08,13.08,0,0,1,1.66,6.49,17.11,17.11,0,0,1-2,8,16,16,0,0,1-5.49,6.09,14.34,14.34,0,0,1-8.05,2.32Q779.79,105.34,777,102.93Z" transform="translate(-12.01 -8)"/></svg>